<?xml version="1.0" standalone="no"?>
<!DOCTYPE svg PUBLIC "-//W3C//DTD SVG 20010904//EN"
 "http://www.w3.org/TR/2001/REC-SVG-20010904/DTD/svg10.dtd">
<svg version="1.0" xmlns="http://www.w3.org/2000/svg"
 width="300.000000pt" height="300.000000pt" viewBox="0 0 300.000000 300.000000"
 preserveAspectRatio="xMidYMid meet">
<metadata>
Created by potrace 1.10, written by Peter Selinger 2001-2011
</metadata>
<g transform="translate(0.000000,300.000000) scale(0.100000,-0.100000)"
fill="#000000" stroke="none">
<path d="M2158 2673 c-57 -22 -74 -34 -107 -78 -21 -28 -55 -83 -74 -121 l-35
-69 20 -105 c18 -96 24 -111 68 -170 27 -36 87 -100 134 -143 98 -89 121 -124
107 -160 -5 -13 -17 -27 -26 -31 -36 -14 -123 -5 -202 21 l-84 27 -16 55 c-25
87 -88 208 -123 238 l-32 27 -172 -33 c-171 -33 -433 -111 -593 -177 -94 -38
-231 -131 -316 -213 -77 -75 -129 -161 -241 -398 -51 -109 -121 -247 -155
-307 -33 -60 -61 -116 -61 -124 0 -8 -29 -53 -64 -101 -35 -49 -61 -92 -58
-98 18 -26 57 -21 156 21 l101 43 215 6 c234 6 226 4 417 86 60 26 85 31 152
31 47 0 83 -4 87 -11 3 -6 6 -60 5 -120 -2 -107 -1 -110 29 -154 26 -38 60
-105 60 -118 0 -3 -13 -7 -28 -10 -52 -10 -142 -55 -142 -71 0 -9 19 -20 51
-29 44 -13 57 -14 98 -1 25 7 56 14 69 14 l23 0 -22 -30 c-13 -16 -20 -33 -16
-37 12 -11 129 -2 159 13 37 19 146 9 213 -20 34 -14 61 -20 85 -16 19 3 70 1
113 -4 42 -5 80 -6 83 -3 4 3 -2 26 -12 51 -16 39 -24 47 -54 53 l-35 6 28 9
c39 14 33 29 -23 60 l-50 28 -66 -16 c-44 -10 -85 -13 -120 -8 -50 6 -54 8
-90 62 -20 31 -56 77 -80 102 -57 61 -68 112 -50 234 7 48 17 91 22 95 5 4 74
31 154 59 277 98 348 132 495 242 257 192 350 296 357 396 3 42 13 17 109
-272 71 -214 110 -319 120 -319 7 0 41 47 74 105 l61 105 -98 334 c-54 184
-127 407 -162 495 l-63 161 6 95 6 94 -55 78 -55 77 -100 36 c-55 19 -107 35
-115 34 -8 0 -45 -12 -82 -26z m174 -39 c43 -14 78 -30 78 -34 0 -19 -34 -80
-44 -79 -6 0 -58 24 -116 54 -113 57 -110 51 -40 78 27 10 44 7 122 -19z m-94
-92 c118 -60 122 -63 122 -95 0 -17 3 -48 6 -68 9 -51 -16 -57 -100 -23 -61
24 -70 32 -131 115 -65 89 -65 90 -48 114 10 13 20 23 23 22 3 -1 60 -30 128
-65z m285 -169 c-3 -50 -9 -97 -13 -103 -9 -15 -42 0 -82 38 -26 24 -28 32
-28 104 0 59 5 88 22 122 l22 45 42 -58 42 -58 -5 -90z m-420 78 c32 -43 57
-80 57 -82 0 -3 -33 -35 -74 -71 l-74 -67 -15 85 -16 86 32 64 c17 35 32 64
33 64 0 0 26 -35 57 -79z m252 -153 c20 9 27 -2 113 -177 86 -174 98 -205 182
-492 84 -284 90 -310 84 -366 l-7 -61 -103 311 c-57 172 -104 327 -104 345 0
18 -16 65 -36 105 -35 69 -119 187 -134 187 -21 0 -109 103 -123 143 l-15 45
61 -25 c46 -19 66 -22 82 -15z m-165 -12 c0 -23 62 -109 97 -134 l27 -19 -65
-11 c-159 -26 -141 -28 -182 22 -20 24 -37 48 -36 53 0 4 33 36 72 69 71 61
86 64 87 20z m327 -58 c6 15 23 16 23 0 0 -7 25 -75 55 -152 45 -116 237 -737
238 -771 0 -10 -64 -128 -67 -123 -1 2 1 37 4 78 5 73 2 85 -87 388 -81 273
-102 329 -163 452 -38 77 -70 142 -70 144 0 3 14 -3 31 -12 24 -13 33 -14 36
-4z m-771 -170 c-64 -145 -163 -288 -201 -288 -2 0 9 38 25 85 39 117 120 246
163 261 17 6 34 10 36 8 2 -2 -8 -32 -23 -66z m-98 34 c-1 -4 -22 -39 -45 -77
-22 -39 -60 -125 -83 -191 -35 -100 -47 -124 -68 -135 -15 -7 -30 -15 -33 -17
-3 -1 4 36 17 84 57 212 107 320 152 330 15 3 32 7 37 9 18 6 27 5 23 -3z
m187 -32 c14 -26 13 -33 -15 -94 -28 -61 -35 -68 -83 -90 -28 -13 -54 -22 -55
-20 -2 1 9 22 25 46 16 24 44 78 62 120 19 43 37 75 42 72 5 -3 16 -18 24 -34z
m534 14 c11 -15 18 -31 14 -38 -4 -6 -25 -40 -47 -75 -35 -56 -41 -62 -49 -45
-5 10 -42 48 -81 84 l-72 65 95 16 c53 9 101 17 108 18 6 0 21 -11 32 -25z
m-859 -9 c0 -3 -6 -16 -14 -28 -24 -37 -68 -165 -101 -292 -30 -118 -31 -120
-70 -142 -47 -27 -59 -29 -51 -8 3 9 19 75 36 147 20 82 47 165 75 224 38 81
46 93 71 97 49 7 54 7 54 2z m-169 -107 c-22 -47 -51 -137 -67 -207 -33 -144
-63 -200 -123 -230 -23 -10 -41 -16 -41 -13 2 43 71 263 116 366 55 129 58
133 98 148 23 9 44 16 48 17 4 0 -10 -36 -31 -81z m1109 -9 c31 -59 31 -64 29
-185 -2 -68 -5 -124 -8 -124 -2 0 -44 30 -93 67 -83 63 -102 83 -78 83 6 0 10
14 10 31 0 19 18 58 51 110 28 43 53 79 55 79 2 0 18 -27 34 -61z m-1262 -69
c-28 -62 -65 -167 -84 -241 -40 -158 -71 -212 -133 -239 -24 -11 -45 -20 -47
-20 -2 0 9 28 25 63 15 34 42 117 60 184 18 71 52 165 82 227 47 99 52 105 92
120 23 8 45 15 49 15 3 1 -16 -48 -44 -109z m713 28 c12 -40 26 -77 31 -83 5
-5 42 -21 83 -35 l74 -25 -45 -70 c-25 -38 -47 -70 -49 -70 -2 0 -42 55 -90
123 l-87 123 23 54 c12 30 26 55 31 55 4 0 17 -33 29 -72z m-813 25 c-60 -122
-86 -191 -114 -295 -19 -70 -56 -176 -83 -235 l-48 -107 -50 -17 c-28 -9 -60
-22 -72 -28 -26 -14 -27 -4 -2 23 10 12 44 97 74 190 45 134 72 197 132 303
63 109 83 137 113 153 39 20 56 25 50 13z m-157 -85 c-64 -98 -118 -215 -167
-360 -45 -135 -64 -176 -111 -246 -73 -106 -159 -177 -114 -94 11 20 36 87 55
147 19 61 72 192 118 293 l83 183 75 55 c41 30 76 54 78 54 2 0 -6 -15 -17
-32z m943 -120 c47 -68 82 -126 78 -129 -4 -3 -87 -25 -185 -47 l-177 -41 -80
57 c-43 31 -79 60 -79 63 -1 3 17 14 39 24 25 11 43 27 46 40 3 14 21 30 47
41 23 11 52 30 65 44 21 22 118 67 149 69 6 1 50 -54 97 -121z m469 -39 c50
-40 95 -75 99 -78 11 -10 -40 -81 -55 -76 -6 3 -88 18 -181 35 -92 16 -170 31
-172 32 -1 2 19 38 46 81 l50 77 60 0 c59 0 62 -1 153 -71z m-1685 -131 c-39
-84 -85 -200 -103 -258 -48 -156 -91 -235 -169 -308 -36 -34 -76 -67 -88 -73
l-22 -12 22 34 c47 71 118 208 202 388 92 196 154 307 198 354 14 15 27 27 28
27 1 0 -30 -69 -68 -152z m821 -12 l72 -54 -53 -35 c-29 -19 -106 -69 -172
-111 -65 -43 -120 -76 -122 -74 -2 2 -23 47 -48 100 l-45 96 50 18 c27 10 56
28 64 41 11 16 25 23 48 23 17 1 52 12 77 25 25 13 48 24 51 25 3 0 38 -24 78
-54z m504 -171 l4 -171 -38 -16 -38 -16 -146 153 -146 154 38 10 c196 49 318
74 320 66 1 -5 4 -87 6 -180z m223 157 c90 -15 164 -29 163 -32 -1 -11 -339
-274 -344 -268 -2 2 -5 78 -7 171 -2 139 -1 166 11 162 7 -3 87 -18 177 -33z
m-616 -56 c0 -3 -4 -8 -10 -11 -5 -3 -10 -1 -10 4 0 6 5 11 10 11 6 0 10 -2
10 -4z m-464 -126 l43 -90 -82 1 c-45 1 -112 4 -149 8 l-68 6 18 29 c12 21 38
38 82 56 45 18 71 36 85 57 11 17 22 29 24 27 2 -2 23 -44 47 -94z m385 -104
l-44 -203 -116 94 c-64 52 -114 98 -113 102 4 6 303 207 312 210 3 0 -14 -91
-39 -203z m359 -87 c0 -4 -8 -9 -17 -12 -10 -3 -92 -32 -183 -66 -90 -33 -165
-59 -166 -58 -2 1 17 94 42 207 24 113 44 210 44 215 0 10 279 -275 280 -286z
m-675 81 c3 -5 1 -10 -4 -10 -6 0 -11 5 -11 10 0 6 2 10 4 10 3 0 8 -4 11 -10z
m-127 -16 c91 -5 103 -8 97 -23 -4 -9 -27 -73 -52 -142 -44 -125 -44 -126 -90
-148 -25 -12 -47 -21 -48 -19 -3 3 -75 153 -138 288 -12 25 -22 47 -24 50 -3
6 87 4 255 -6z m-402 -204 l-82 -204 -95 3 c-89 2 -99 0 -184 -35 -50 -20 -94
-41 -99 -45 -6 -5 -16 -9 -23 -9 -22 0 87 130 133 159 24 14 75 58 115 96 40
38 98 86 129 106 31 20 67 51 79 68 17 24 98 74 108 67 1 -1 -35 -94 -81 -206z
m271 -145 c-19 -17 -144 -47 -219 -53 -96 -8 -107 -6 -90 13 5 6 42 92 82 192
l73 182 78 -166 c44 -92 78 -167 76 -168z m517 70 c-9 -100 -14 -113 -38 -112
-11 1 -31 -2 -43 -7 -18 -6 -25 -2 -37 21 -9 15 -29 43 -45 61 -29 33 -29 34
-105 30 -48 -2 -76 1 -74 7 2 6 23 67 48 136 l44 126 128 -101 128 -101 -6
-60z m1302 220 c8 -21 -6 -41 -17 -24 -12 19 -11 39 1 39 6 0 13 -7 16 -15z
m-1431 -401 c23 -102 38 -134 78 -166 18 -14 47 -51 62 -81 26 -48 27 -57 15
-72 -11 -14 -24 -16 -59 -11 -30 4 -62 1 -93 -10 -58 -19 -102 -10 -52 11 17
7 50 16 72 20 23 4 44 10 47 14 7 12 -26 89 -66 156 -35 58 -36 63 -31 138 2
42 5 77 7 77 2 0 11 -34 20 -76z m101 28 c6 -4 15 -29 19 -57 6 -41 17 -61 59
-110 29 -33 69 -83 90 -111 34 -49 40 -52 99 -64 53 -10 73 -9 123 4 56 14
104 13 104 -4 0 -4 -19 -11 -42 -16 -69 -14 -56 -36 29 -53 110 -20 102 -38
-16 -35 -77 1 -106 6 -139 23 -50 26 -191 29 -232 6 -14 -8 -38 -14 -54 -15
l-29 0 47 41 c25 22 46 47 46 55 0 30 -59 130 -99 167 -28 26 -45 53 -56 89
-19 66 -19 67 8 78 28 11 30 11 43 2z"/>
<path d="M161 1894 c0 -11 3 -14 6 -6 3 7 2 16 -1 19 -3 4 -6 -2 -5 -13z"/>
</g>
</svg>
